Coordinates
version=1
nRows=4
nColumns=107
inDegrees=yes

Units are S.I. units (second, meters, Newtons, ...)
If the header above contains a line with 'inDegrees', this indicates whether rotational values are in degrees (yes) or radians (no).

endheader
time	sternoclavicular_r2	sternoclavicular_r3	unrotscap_r3	unrotscap_r2	acromioclavicular_r2	acromioclavicular_r3	acromioclavicular_r1	unrothum_r1	unrothum_r3	unrothum_r2	elv_angle	shoulder_elv	shoulder1_r2	shoulder_rot	elbow_flexion	pro_sup	deviation	flexion	proximal_distal_r1	proximal_distal_r3	cmc_flexion	cmc_abduction	mp_flexion	ip_flexion	mcp2_flexion	mcp2_abduction	pm2_flexion	md2_flexion	mcp3_flexion	mcp3_abduction	pm3_flexion	md3_flexion	mcp4_flexion	mcp4_abduction	pm4_flexion	md4_flexion	mcp5_flexion	mcp5_abduction	pm5_flexion	md5_flexion	bicpt_tx	bicpt_ty	bicpt_tz	bicpt2_tx	bicpt2_ty	bicpt2_tz	ptpt_tx	ptpt_ty	ptpt_tz	FCUpt_tx	FCUpt_ty	FCUpt_tz	EDCpt_tx	EDCpt_ty	EDCpt_tz	APLpt_tx	APLpt_ty	APLpt_tz	FPLpt_tx	FPLpt_ty	FPLpt_tz	FPLpt2_tx	FPLpt2_ty	FPLpt2_tz	PEC1pt2_tx	PEC1pt2_ty	PEC1pt2_tz	PEC1pt3_tx	PEC1pt3_ty	PEC1pt3_tz	PEC2pt2_tx	PEC2pt2_ty	PEC2pt2_tz	PEC2pt3_tx	PEC2pt3_ty	PEC2pt3_tz	PEC3pt2_tx	PEC3pt2_ty	PEC3pt2_tz	PEC3pt3_tx	PEC3pt3_ty	PEC3pt3_tz	DELT2pt2a_tx	DELT2pt2a_ty	DELT2pt2a_tz	DELT2pt2_tx	DELT2pt2_ty	DELT2pt2_tz	LAT1pt2_tx	LAT1pt2_ty	LAT1pt2_tz	LAT1pt3_tx	LAT1pt3_ty	LAT1pt3_tz	LAT2pt2_tx	LAT2pt2_ty	LAT2pt2_tz	LAT2pt3_tx	LAT2pt3_ty	LAT2pt3_tz	LAT3pt2_tx	LAT3pt2_ty	LAT3pt2_tz	LAT3pt3_tx	LAT3pt3_ty	LAT3pt3_tz
      0.53333333	     -0.31137554	      0.13188398	     -0.13188398	      0.31137554	     -0.06304721	      0.50952540	      0.22902816	     -0.22902816	     -0.50952540	      0.06304721	    101.44951106	     73.72092695	     -1.77062799	    -38.37715745	     31.98628664	     81.84088970	      0.32627005	     -0.69876657	      0.35566267	     -0.34938329	     41.32131384	    -21.93922479	      4.12532953	      4.82508971	     79.18535803	     13.45809000	     77.39901045	     86.12237237	     87.27942421	      2.33475921	     80.07780848	     56.85613749	     84.29752652	    -13.34143134	     91.10746834	     42.32225525	     91.92640095	    -14.28834583	     88.40346421	      5.48540767	      0.00095801	     -0.03126612	     -0.00489052	      0.01465006	     -0.01888923	     -0.00177616	      0.00150288	     -0.06881017	     -0.00664272	      0.01226289	     -0.18237613	     -0.00002425	     -0.00982088	      0.00335244	     -0.00062835	      0.00030605	      0.00012242	      0.00061210	      0.00039174	      0.00117523	      0.00066107	     -0.00000858	     -0.00008445	     -0.00010134	      0.00241641	      0.00847791	      0.00589768	     -0.00790453	      0.01908554	     -0.01810260	      0.00241641	      0.00847791	      0.00589768	      0.00053243	      0.01769304	     -0.00929704	      0.00385425	      0.00471446	      0.01573407	      0.00000000	      0.00726512	      0.00000000	     -0.00692158	     -0.03198672	     -0.00598738	      0.02212230	     -0.00105197	     -0.01196878	     -0.00086008	      0.01441655	     -0.00589768	      0.00237545	      0.02080570	     -0.01720156	     -0.00577481	      0.01249161	     -0.00528334	     -0.01204109	      0.02637573	     -0.02952935	     -0.02260777	      0.01396603	     -0.00708541	     -0.01498993	      0.03047134	     -0.03690145
      0.56666667	     -0.31160881	      0.13198278	     -0.13198278	      0.31160881	     -0.06309445	      0.50990711	      0.22919974	     -0.22919974	     -0.50990711	      0.06309445	    101.46300104	     73.77615563	     -1.77086344	    -38.38608924	     32.00977765	     81.83700801	      0.32633347	     -0.69881813	      0.35571476	     -0.34940907	     41.32031007	    -21.94109449	      4.12437255	      4.82477050	     79.18193239	     13.45839720	     77.39874945	     86.12265183	     87.27626617	      2.33536516	     80.07754715	     56.85621442	     84.29587874	    -13.34121025	     91.10730859	     42.32219602	     91.92464285	    -14.28835745	     88.40300702	      5.48524329	      0.00095878	     -0.03126881	     -0.00489095	      0.01465040	     -0.01889561	     -0.00177679	      0.00150317	     -0.06880998	     -0.00664241	      0.01226245	     -0.18237625	     -0.00002434	     -0.00982042	      0.00335224	     -0.00062824	      0.00030602	      0.00012241	      0.00061204	      0.00039171	      0.00117512	      0.00066101	     -0.00000858	     -0.00008447	     -0.00010136	      0.00241822	      0.00848427	      0.00590210	     -0.00791045	      0.01909984	     -0.01811616	      0.00241822	      0.00848427	      0.00590210	      0.00053283	      0.01770629	     -0.00930400	      0.00385639	      0.00471799	      0.01573950	      0.00000000	      0.00727608	      0.00000000	     -0.00692677	     -0.03201068	     -0.00599649	      0.02212523	     -0.00105229	     -0.01197395	     -0.00086072	      0.01442735	     -0.00590210	      0.00237723	      0.02082129	     -0.01721445	     -0.00577914	      0.01250097	     -0.00528730	     -0.01205012	      0.02639549	     -0.02955147	     -0.02262471	      0.01397649	     -0.00709071	     -0.01500116	      0.03049417	     -0.03692910
      0.60000000	     -0.31169606	      0.13201974	     -0.13201974	      0.31169606	     -0.06311211	      0.51004989	      0.22926392	     -0.22926392	     -0.51004989	      0.06311211	    101.24931911	     73.79681339	     -1.76713398	    -37.61966248	     31.99811486	     80.36616496	      0.33660524	     -0.71273346	      0.36408141	     -0.35636673	     41.02606516	    -22.16354261	      2.97332959	      4.32008728	     77.55138105	     13.49826468	     76.80338719	     85.66950531	     85.94853862	      2.63437912	     80.19026878	     57.23070004	     83.20321289	    -13.26481157	     91.18028753	     42.56020001	     90.61788645	    -14.28666259	     88.74661876	      5.47038020	      0.00095840	     -0.03126747	     -0.00489073	      0.01478597	     -0.01889244	     -0.00201858	      0.00161185	     -0.06873971	     -0.00652393	      0.01209571	     -0.18242401	     -0.00005943	     -0.00964392	      0.00327375	     -0.00058492	      0.00030381	      0.00012152	      0.00060762	      0.00038888	      0.00116664	      0.00065623	     -0.00000905	     -0.00009058	     -0.00010869	      0.00241890	      0.00848664	      0.00590375	     -0.00791267	      0.01910519	     -0.01812123	      0.00241890	      0.00848664	      0.00590375	      0.00053298	      0.01771125	     -0.00930661	      0.00385719	      0.00471931	      0.01574153	      0.00000000	      0.00728018	      0.00000000	     -0.00692871	     -0.03201964	     -0.00599989	      0.02186758	     -0.00102465	     -0.01153507	     -0.00086096	      0.01443139	     -0.00590375	      0.00237790	      0.02082712	     -0.01721927	     -0.00578076	      0.01250447	     -0.00528878	     -0.01205349	      0.02640288	     -0.02955975	     -0.02263104	      0.01398041	     -0.00709270	     -0.01500536	      0.03050271	     -0.03693944
      0.63333333	     -0.31256142	      0.13238626	     -0.13238626	      0.31256142	     -0.06328733	      0.51146593	      0.22990041	     -0.22990041	     -0.51146593	      0.06328733	    101.30463726	     74.00169335	     -1.76809947	    -37.29965700	     31.41846556	     78.86064963	      0.31584248	     -0.79821528	      0.34699178	     -0.39910764	     40.89116783	    -22.14169728	      2.06287834	      4.77173796	     78.28098211	     13.49272834	     75.78558901	     84.88441411	     86.40718288	      2.80765146	     79.72036843	     57.23110131	     83.83335764	    -13.34221797	     90.81153301	     41.97981933	     91.40181578	    -14.29835753	     87.39106737	      5.50293049	      0.00093923	     -0.03120104	     -0.00488003	      0.01491959	     -0.01873498	     -0.00226291	      0.00172309	     -0.06866778	     -0.00640265	      0.01192573	     -0.18247227	     -0.00009365	     -0.00946326	      0.00319410	     -0.00054179	      0.00028320	      0.00011328	      0.00056640	      0.00036250	      0.00108749	      0.00061171	     -0.00000927	     -0.00009336	     -0.00011203	      0.00242561	      0.00851020	      0.00592014	     -0.00793463	      0.01915823	     -0.01817154	      0.00242561	      0.00851020	      0.00592014	      0.00053446	      0.01776042	     -0.00933244	      0.00386511	      0.00473242	      0.01576162	      0.00000000	      0.00732092	      0.00000000	     -0.00694794	     -0.03210854	     -0.00603373	      0.02175759	     -0.00101314	     -0.01135352	     -0.00086335	      0.01447145	     -0.00592014	      0.00238450	      0.02088494	     -0.01726708	     -0.00579680	      0.01253919	     -0.00530346	     -0.01208695	      0.02647618	     -0.02964181	     -0.02269387	      0.01401922	     -0.00711239	     -0.01504702	      0.03058739	     -0.03704199
